<?xml version="1.0" standalone="no"?>
<!DOCTYPE svg PUBLIC "-//W3C//DTD SVG 20010904//EN"
 "http://www.w3.org/TR/2001/REC-SVG-20010904/DTD/svg10.dtd">
<svg version="1.0" xmlns="http://www.w3.org/2000/svg"
 width="512.000000pt" height="512.000000pt" viewBox="0 0 512.000000 512.000000"
 preserveAspectRatio="xMidYMid meet">
<metadata>
Created by potrace 1.14, written by Peter Selinger 2001-2017
</metadata>
<g transform="translate(0.000000,512.000000) scale(0.100000,-0.100000)"
fill="#000000" stroke="none">
<path d="M777 4173 c-2 -5 -3 -478 -3 -1053 l1 -1045 160 0 160 0 0 393 c0
215 2 392 5 393 3 1 59 2 125 4 66 2 141 8 167 14 167 39 313 182 364 356 14
49 17 100 17 285 -1 243 -3 273 -31 353 -52 147 -166 250 -322 291 -41 10
-129 14 -347 15 -160 1 -293 -2 -296 -6z m593 -338 c82 -42 97 -93 95 -325 -1
-189 -5 -208 -42 -258 -40 -54 -74 -65 -200 -67 -62 -1 -116 1 -121 4 -10 7
-11 654 -1 661 4 3 59 5 121 4 87 -1 122 -6 148 -19z"/>
<path d="M1937 4173 c-2 -5 -4 -478 -3 -1053 l1 -1045 160 0 160 0 0 393 c0
215 2 393 5 393 3 1 57 2 120 3 193 4 299 43 405 150 59 58 118 157 130 216 3
14 9 43 13 65 13 65 7 453 -7 515 -42 179 -162 304 -338 354 -41 12 -119 15
-347 16 -162 0 -296 -3 -299 -7z m590 -336 c84 -44 99 -95 98 -333 -1 -177 -2
-182 -28 -227 -44 -75 -79 -90 -213 -92 -62 -1 -117 1 -122 4 -5 3 -8 152 -8
331 0 378 -18 337 142 333 67 -1 113 -7 131 -16z"/>
<path d="M3093 3128 l2 -1053 160 0 160 0 1 1053 1 1052 -163 0 -162 0 1
-1052z"/>
<path d="M3653 4166 c2 -5 12 -15 23 -22 15 -11 24 -11 43 -1 41 20 34 32 -19
33 -28 0 -49 -4 -47 -10z"/>
<path d="M4055 4154 c9 -14 14 -33 11 -41 -5 -11 -2 -13 11 -8 10 4 29 9 43
10 14 1 31 3 38 4 17 1 15 36 -3 51 -11 10 -18 9 -30 -4 -15 -14 -19 -14 -45
-1 -40 21 -45 19 -25 -11z"/>
<path d="M3822 4135 c-30 -18 -62 -41 -72 -50 -23 -20 -44 -75 -29 -75 10 0
123 109 148 143 18 23 14 22 -47 -18z"/>
<path d="M4197 4124 c-3 -3 -3 -21 0 -40 3 -20 1 -40 -7 -49 -7 -9 -11 -17 -9
-18 2 -1 21 -10 42 -20 35 -16 37 -16 37 1 0 10 -5 23 -12 30 -9 9 -9 18 0 37
21 45 16 65 -16 65 -16 0 -31 -3 -35 -6z"/>
<path d="M4001 4107 c-8 -10 -6 -19 10 -35 11 -12 26 -23 34 -23 23 -2 29 -4
52 -17 31 -17 55 -5 51 26 -3 28 -28 44 -28 18 0 -25 -26 -19 -60 14 -34 34
-43 36 -59 17z"/>
<path d="M3912 4073 c-25 -40 -20 -51 26 -49 29 1 38 21 28 62 -9 34 -27 29
-54 -13z"/>
<path d="M3594 3987 l0 -114 30 18 c54 33 88 24 134 -35 29 -38 28 -70 -3 -90
-29 -19 -32 -50 -10 -92 18 -35 20 -74 3 -74 -6 0 -32 12 -57 27 l-46 27 33
-38 c30 -35 32 -40 19 -54 -14 -13 -19 -12 -47 12 -46 38 -69 35 -30 -4 11
-11 20 -31 20 -45 0 -16 5 -23 13 -19 7 2 21 -2 32 -9 15 -11 19 -28 20 -81 2
-87 -12 -98 -95 -75 -9 3 -15 -4 -16 -18 -1 -21 2 -22 55 -20 l55 2 1 -40 c1
-57 -9 -74 -45 -71 -17 1 -36 8 -42 14 -19 19 -26 14 -25 -17 1 -18 13 -38 35
-55 42 -36 42 -61 -2 -76 -33 -11 -34 -13 -32 -58 1 -26 7 -56 14 -68 13 -24
13 -63 -1 -81 -5 -7 -11 -25 -13 -42 -4 -23 0 -32 15 -41 12 -6 28 -24 36 -40
28 -54 15 -100 -30 -100 -21 0 -21 -2 -21 -277 l1 -278 249 0 249 0 12 48 c17
68 29 77 116 82 170 11 289 91 289 195 0 40 -27 67 -87 84 -29 8 -53 13 -53
10 0 -3 11 -20 25 -38 65 -86 -4 -97 -76 -13 -32 38 -85 46 -94 15 -4 -10 -1
-25 5 -33 37 -44 -45 -106 -82 -63 -21 24 -23 66 -3 92 12 16 12 21 -1 41 -13
20 -12 24 6 40 11 10 37 26 58 35 l37 17 -31 16 c-32 16 -44 40 -44 89 0 23
-4 26 -24 22 -14 -2 -34 4 -50 17 l-27 21 7 -53 c4 -30 8 -61 9 -68 1 -8 -4
-26 -12 -40 -7 -15 -13 -36 -13 -47 0 -26 -17 -41 -53 -48 -20 -3 -30 0 -35
12 -3 9 -16 32 -29 51 -27 40 -26 53 7 58 60 9 56 58 -7 88 -20 10 -56 37 -82
61 -25 24 -49 44 -53 44 -10 0 -10 -14 -1 -24 4 -3 8 -12 9 -19 1 -7 5 -20 9
-29 5 -13 0 -20 -21 -28 -16 -6 -38 -9 -50 -6 -20 5 -94 90 -94 108 0 15 18 8
41 -17 30 -31 45 -32 53 -2 9 35 8 37 -23 48 -44 15 -35 55 23 109 26 24 45
45 43 47 -2 2 -29 -8 -61 -22 -79 -35 -91 -33 -104 15 -11 43 -6 51 41 69 15
6 27 18 27 26 0 25 31 65 50 65 26 0 34 -34 15 -70 l-16 -30 31 0 c25 0 32 -6
45 -36 20 -49 20 -52 -20 -114 -20 -30 -31 -56 -26 -58 5 -2 27 5 48 16 69 35
91 36 130 6 29 -22 42 -26 80 -21 72 8 97 33 104 103 4 32 9 68 13 79 8 27 5
30 -97 105 -92 68 -105 87 -103 160 1 35 1 35 51 38 28 2 75 -2 105 -9 56 -12
192 -15 210 -4 6 3 10 17 10 30 0 13 4 25 10 27 5 2 12 20 14 41 4 31 2 37
-13 37 -10 0 -35 16 -55 35 -21 19 -48 35 -60 35 -40 0 -84 21 -101 47 -19 29
-27 209 -10 223 17 14 88 -17 117 -51 15 -18 35 -53 43 -78 8 -25 24 -61 35
-78 17 -28 23 -31 44 -23 13 5 27 6 30 3 7 -7 8 5 10 101 2 82 -20 124 -74
143 -44 16 -241 14 -295 -2 -38 -11 -42 -10 -87 23 -27 18 -48 31 -48 27 0 -3
12 -26 26 -51 21 -36 24 -47 14 -59 -16 -20 -26 -12 -90 75 -28 37 -59 70 -70
73 -23 6 -27 27 -6 27 16 0 167 59 180 71 4 4 -9 4 -30 -1 -22 -5 -59 -11 -84
-14 -25 -3 -65 -9 -90 -13 -52 -8 -108 -8 -116 0 -3 3 -8 32 -11 64 -9 100
-20 78 -19 -40z m733 -242 c25 -17 35 -61 18 -75 -17 -14 -65 25 -65 54 0 38
14 44 47 21z m-291 -160 c10 -25 -5 -64 -31 -81 -14 -9 -28 -15 -30 -12 -3 3
2 28 10 56 16 52 39 69 51 37z m-106 -121 c0 -20 -30 -30 -40 -13 -11 17 7 40
26 32 8 -3 14 -12 14 -19z m270 -33 c5 -11 10 -22 10 -24 0 -11 -45 -15 -64
-5 -30 15 -29 15 -15 32 19 21 56 20 69 -3z"/>
<path d="M4000 3870 c0 -19 20 -27 33 -13 8 7 -11 33 -24 33 -5 0 -9 -9 -9
-20z"/>
<path d="M3595 3428 c2 -24 19 -35 30 -18 7 11 -11 40 -25 40 -3 0 -6 -10 -5
-22z"/>
<path d="M4093 3283 c-6 -16 41 -63 64 -63 17 0 17 44 1 57 -24 19 -59 22 -65
6z"/>
<path d="M4380 3161 c0 -15 42 -41 53 -34 6 4 0 14 -12 25 -25 20 -41 23 -41
9z"/>
<path d="M4295 3090 c-3 -6 4 -14 17 -19 23 -8 42 4 32 21 -7 11 -42 10 -49
-2z"/>
<path d="M4376 3034 c-27 -7 -65 -16 -84 -19 -19 -3 -38 -7 -42 -10 -18 -11 5
-47 40 -65 62 -31 70 -44 57 -85 -10 -34 -59 -87 -87 -97 -15 -5 -20 -56 -8
-80 12 -25 49 -23 55 2 9 36 41 30 88 -15 19 -19 37 -35 40 -35 2 0 -1 14 -7
31 -8 23 -7 41 3 71 11 34 14 65 10 108 -1 6 -8 10 -16 10 -24 0 -35 41 -20
70 8 14 16 33 19 43 8 26 45 21 58 -8 11 -24 12 -24 30 -9 24 23 23 59 -4 84
-25 23 -59 24 -132 4z m2 -292 c2 -7 -7 -12 -22 -12 -24 0 -33 10 -20 22 9 10
38 2 42 -10z"/>
<path d="M2214 1992 c-82 -24 -128 -63 -166 -140 -21 -45 -22 -56 -22 -375 -1
-382 1 -395 73 -467 113 -113 278 -101 375 26 39 50 50 98 48 207 0 37 -1 71
-1 75 -1 5 -36 8 -78 8 l-78 -1 -1 -83 c-1 -84 -14 -126 -43 -137 -57 -23
-107 -10 -131 35 -7 12 -11 80 -11 168 0 81 1 223 1 315 l0 169 30 29 c23 23
37 29 65 27 41 -3 85 -39 86 -72 0 -11 1 -48 2 -81 l2 -60 73 -1 c40 0 76 4
79 10 9 13 7 146 -2 171 -19 52 -37 84 -61 108 -68 68 -157 94 -240 69z"/>
<path d="M896 1968 c-3 -13 -12 -66 -21 -118 -9 -52 -20 -120 -26 -150 -5 -30
-12 -75 -15 -100 -3 -25 -8 -48 -10 -52 -2 -3 -7 -28 -10 -55 -3 -26 -7 -55
-9 -63 -2 -8 -7 -31 -10 -50 -3 -19 -12 -71 -20 -115 -8 -44 -17 -100 -20
-125 -3 -25 -8 -52 -10 -60 -3 -8 -7 -32 -9 -54 -3 -21 -8 -47 -11 -57 -7 -22
-12 -21 82 -23 l72 -2 10 46 c5 25 12 65 16 90 3 25 8 54 10 65 2 11 4 25 4
30 1 7 35 11 86 11 70 0 85 -2 86 -15 0 -9 2 -23 4 -31 7 -32 14 -77 20 -132
4 -32 12 -59 19 -59 41 -5 138 -4 145 0 5 4 3 40 -5 86 -8 44 -17 96 -20 115
-3 19 -7 46 -10 60 -2 14 -7 41 -10 60 -8 49 -13 82 -18 105 -2 11 -7 42 -10
69 -4 27 -9 52 -10 55 -2 3 -7 26 -10 51 -3 25 -8 54 -10 65 -2 11 -7 43 -11
70 -5 28 -9 52 -10 55 0 3 -4 27 -9 53 -4 27 -9 57 -11 67 -2 9 -6 35 -9 56
-13 78 -6 74 -121 74 -100 0 -105 -1 -109 -22z m129 -350 c4 -35 14 -109 24
-166 9 -57 15 -105 12 -107 -7 -4 -58 -7 -90 -6 -23 1 -23 3 -16 59 6 56 14
112 20 142 2 8 7 44 11 80 4 36 9 68 10 73 1 4 2 13 3 20 4 25 20 -35 26 -95z"/>
<path d="M1540 1918 c-7 -40 -14 -82 -17 -93 -2 -11 -6 -33 -8 -50 -3 -16 -7
-42 -10 -57 -4 -15 -8 -42 -11 -60 -10 -67 -14 -94 -19 -118 -2 -14 -8 -50
-14 -80 -5 -30 -12 -68 -15 -85 -5 -32 -65 -390 -69 -415 -2 -11 13 -14 78
-15 l79 0 7 35 c4 19 11 61 14 92 13 115 11 113 96 114 83 1 96 -2 96 -19 0
-26 14 -120 18 -127 3 -5 6 -26 7 -48 1 -28 6 -42 17 -44 22 -6 140 -2 146 4
3 2 1 29 -5 59 -5 30 -12 70 -15 89 -3 19 -8 42 -10 50 -2 8 -6 35 -9 60 -6
43 -10 65 -21 120 -3 14 -7 43 -10 65 -3 22 -8 51 -10 65 -3 14 -7 39 -10 55
-3 17 -7 39 -9 50 -2 11 -19 111 -37 223 l-33 202 -107 0 -107 0 -12 -72z
m134 -276 c4 -31 8 -68 11 -82 22 -121 31 -211 21 -217 -9 -6 -24 -7 -87 -4
-19 1 -20 5 -14 49 7 58 15 109 20 141 2 13 7 45 10 70 16 119 29 134 39 43z"/>
<path d="M2609 1948 c0 -53 0 -931 0 -974 l1 -30 70 1 c41 0 74 5 78 12 4 6 7
106 6 222 l-1 211 96 0 96 0 0 -220 c0 -121 2 -221 5 -221 3 -1 38 -2 78 -3
l72 -2 0 523 0 524 -77 -3 -78 -3 0 -220 0 -220 -95 1 -95 0 -1 220 0 219 -77
3 -77 3 -1 -43z"/>
<path d="M3198 1983 c-3 -7 -2 -999 1 -1028 1 -12 425 -14 437 -3 4 5 8 39 8
78 l1 70 -30 1 c-16 0 -82 1 -145 2 l-115 2 -3 142 -3 142 108 3 108 3 0 75 0
75 -105 1 -105 1 0 143 0 144 135 1 c74 0 140 3 145 7 8 5 12 95 6 141 -1 4
-100 7 -220 7 -121 0 -221 -3 -223 -7z"/>
<path d="M3728 1983 c-3 -7 -2 -961 1 -1019 1 -18 7 -20 70 -19 38 0 73 4 77
8 4 4 7 149 7 323 0 173 3 312 7 307 9 -9 32 -78 120 -353 34 -107 69 -215 79
-240 l17 -45 70 -1 c38 0 75 2 82 4 9 3 12 117 12 523 l0 519 -78 0 -78 0 0
-331 c1 -182 -2 -333 -6 -336 -5 -2 -8 -2 -8 0 0 2 -18 64 -41 138 -39 127
-47 155 -68 232 -5 17 -25 85 -45 149 -20 65 -36 125 -36 133 0 12 -16 15 -89
15 -50 0 -91 -3 -93 -7z"/>
</g>
</svg>
